<?xml version="1.0" standalone="no"?>
<!DOCTYPE svg PUBLIC "-//W3C//DTD SVG 20010904//EN"
 "http://www.w3.org/TR/2001/REC-SVG-20010904/DTD/svg10.dtd">
<svg version="1.0" xmlns="http://www.w3.org/2000/svg"
 width="400.000000pt" height="400.000000pt" viewBox="0 0 400.000000 400.000000"
 preserveAspectRatio="xMidYMid meet">

<g transform="translate(0.000000,400.000000) scale(0.100000,-0.100000)"
fill="#ffffff" stroke="none">
<path d="M1476 3886 c-86 -32 -155 -140 -143 -226 9 -66 40 -113 143 -215 116
-115 167 -180 218 -282 39 -78 86 -228 86 -274 0 -46 17 -42 58 13 84 113 131
243 139 390 16 264 -86 481 -269 574 -65 33 -171 42 -232 20z"/>
<path d="M810 3519 c-114 -19 -214 -87 -265 -180 -63 -114 -27 -257 80 -324
46 -28 54 -30 149 -30 56 1 164 5 241 9 124 7 152 6 243 -13 117 -24 221 -63
308 -114 l59 -35 3 24 c9 64 -63 241 -138 340 -125 166 -311 288 -486 319 -89
16 -116 17 -194 4z"/>
<path d="M2537 3415 c-116 -29 -238 -104 -324 -199 -138 -152 -214 -396 -200
-646 7 -122 41 -230 106 -336 52 -83 232 -284 256 -284 7 0 60 80 116 178 141
244 191 322 270 427 203 272 439 402 784 435 66 6 120 12 122 14 2 2 -20 8
-49 14 -29 6 -138 29 -241 51 -114 24 -196 46 -207 56 -10 9 -40 52 -67 97
-56 93 -122 144 -232 179 -86 28 -252 35 -334 14z m254 -312 c64 -38 74 -129
20 -184 -36 -36 -73 -45 -121 -30 -86 26 -111 132 -46 197 28 28 42 34 76 34
23 0 55 -8 71 -17z"/>
<path d="M950 2840 c-207 -26 -379 -108 -502 -238 -107 -114 -156 -236 -145
-360 14 -147 99 -245 236 -270 131 -24 211 29 344 228 38 58 95 134 125 168
110 127 285 246 444 303 104 37 104 37 -17 95 -133 64 -329 94 -485 74z"/>
<path d="M1596 2554 c-144 -35 -328 -147 -449 -273 -180 -188 -268 -388 -268
-606 1 -154 41 -264 132 -360 106 -112 243 -140 372 -77 75 37 119 86 144 158
14 40 15 69 7 193 -5 80 -8 223 -8 316 1 148 4 182 27 266 32 122 69 214 123
311 24 43 44 80 44 83 0 9 -63 4 -124 -11z"/>
<path d="M1831 2441 c-38 -53 -98 -192 -122 -281 -21 -74 -23 -109 -24 -275 0
-150 4 -206 18 -264 67 -277 197 -477 388 -601 108 -70 158 -84 294 -84 151
-1 210 19 290 99 69 70 99 142 99 245 2 139 -64 223 -295 377 -75 50 -167 118
-205 151 -163 140 -310 361 -392 586 l-29 78 -22 -31z"/>
<path d="M1602 1210 c-93 -101 -234 -160 -383 -160 l-76 0 -33 -92 c-108 -307
-229 -606 -307 -762 -19 -37 -32 -70 -30 -72 2 -2 29 34 60 80 175 264 504
608 865 908 l32 27 -32 65 c-18 37 -35 65 -38 65 -3 -1 -29 -27 -58 -59z"/>
</g>
</svg>
